<svg xmlns="http://www.w3.org/2000/svg" width="30" height="30" viewBox="0 0 30 30" fill="none">
<circle cx="15" cy="15" r="15" fill="#007AFF" fill-opacity="0.15"/>
<path d="M23.928 9.6197C23.8367 9.37547 23.662 9.18139 23.4422 9.07996C23.334 9.02875 23.2178 9.00158 23.1003 9H18.6016C18.3629 9 18.1341 9.10531 17.9654 9.29275C17.7966 9.4802 17.7018 9.73443 17.7018 9.99952C17.7018 10.2646 17.7966 10.5188 17.9654 10.7063C18.1341 10.8937 18.3629 10.999 18.6016 10.999H20.9319L15.9023 16.5863L12.9422 13.2879C12.8586 13.1942 12.7591 13.1199 12.6494 13.0691C12.5398 13.0184 12.4222 12.9923 12.3034 12.9923C12.1846 12.9923 12.067 13.0184 11.9574 13.0691C11.8477 13.1199 11.7482 13.1942 11.6646 13.2879L6.26614 19.285C6.18181 19.3779 6.11487 19.4885 6.0692 19.6103C6.02352 19.7321 6 19.8627 6 19.9947C6 20.1266 6.02352 20.2573 6.0692 20.3791C6.11487 20.5009 6.18181 20.6114 6.26614 20.7043C6.34978 20.798 6.4493 20.8724 6.55894 20.9231C6.66858 20.9739 6.78618 21 6.90496 21C7.02373 21 7.14133 20.9739 7.25097 20.9231C7.36062 20.8724 7.46013 20.798 7.54377 20.7043L12.3034 15.4069L15.2635 18.7053C15.3472 18.799 15.4467 18.8734 15.5563 18.9241C15.666 18.9748 15.7836 19.001 15.9023 19.001C16.0211 19.001 16.1387 18.9748 16.2484 18.9241C16.358 18.8734 16.4575 18.799 16.5412 18.7053L22.2005 12.4084V14.9971C22.2005 15.2622 22.2953 15.5164 22.464 15.7039C22.6328 15.8913 22.8616 15.9966 23.1003 15.9966C23.3389 15.9966 23.5677 15.8913 23.7365 15.7039C23.9052 15.5164 24 15.2622 24 14.9971V9.99952C23.9986 9.8689 23.9741 9.73986 23.928 9.6197Z" fill="#2A54A7" stroke="#FAFAFA" strokeWidth="0.3"/>
</svg>