<svg width="20" height="15" viewBox="0 0 20 15" fill="none" xmlns="http://www.w3.org/2000/svg">
<path d="M1.00057 1.90735e-06H19.0006C19.1828 0.000573158 19.3615 0.0508366 19.5173 0.14538C19.673 0.239923 19.8001 0.375167 19.8848 0.536554C19.9694 0.697942 20.0085 0.879362 19.9977 1.06129C19.9869 1.24321 19.9267 1.41875 19.8236 1.569L10.8236 14.569C10.4506 15.108 9.55257 15.108 9.17857 14.569L0.178574 1.569C0.0743986 1.41906 0.0133079 1.24343 0.00193892 1.06121C-0.00943004 0.878981 0.0293576 0.697124 0.114088 0.535395C0.198818 0.373666 0.32625 0.238248 0.482538 0.143858C0.638826 0.049468 0.817994 -0.000286102 1.00057 1.90735e-06Z" fill="black"/>
</svg>
