<svg width="19" height="20" viewBox="0 0 19 20" fill="none" xmlns="http://www.w3.org/2000/svg">
<path d="M1.79906 3.35827V5.04195C0.808653 5.01605 0 5.41443 0 6.13608V7.4371C-1.98518e-05 8.81942 0.841627 9.41517 1.71774 9.58993V15.452V17.3205C1.82351 17.6373 2.05292 17.6884 2.6935 17.6079V19.2095C2.79411 19.7476 2.96448 19.8602 3.30335 20H4.79748C5.17134 19.8283 5.28067 19.6365 5.38701 19.2095V17.6079H13.3252V19.2095C13.4471 19.665 13.5985 19.8422 14.0367 20H15.4699C15.8645 19.8192 15.9718 19.6363 16.0187 19.2095V17.6079C16.6798 17.6381 16.8749 17.5337 16.8623 17.1049V14.5794V9.58993C17.9807 9.3899 18.7834 8.90073 18.7834 7.4371V6.13608C18.7834 5.04195 17.8802 4.9372 16.8623 5.04195V3.35827C16.8623 0.945684 14.6567 0.0781543 12.1665 0.0781543C9.72932 -0.0213499 8.36289 -0.0306493 5.92571 0.0781543C4.04534 0.1621 1.79906 1.3666 1.79906 3.35827Z" fill="#8E8E8E"/>
<path d="M9.43232 15.5379C6.38306 15.5543 1.69739 14.4707 1.69739 14.4707V15.4058C1.69739 15.4058 6.38249 16.4731 9.43232 16.4832C12.3612 16.4929 16.8725 15.5379 16.8725 15.5379V14.4707C16.8725 14.4707 12.3676 15.5222 9.43232 15.5379Z" fill="white"/>
<path d="M16.1002 3.88983H2.67334V9.4293C3.07527 10.2576 3.40077 10.487 4.10649 10.5982H14.7585C15.5952 10.3579 15.8597 10.0817 16.1002 9.4293V3.88983Z" fill="white"/>
<rect x="6.20032" y="1.58258" width="6.2408" height="1.01642" rx="0.508208" fill="white"/>
<ellipse cx="4.04544" cy="12.8017" rx="0.874118" ry="0.851705" fill="white"/>
<ellipse cx="14.6975" cy="12.8017" rx="0.874118" ry="0.851705" fill="white"/>
</svg>
