<svg width="19" height="22" viewBox="0 0 19 22" fill="none" xmlns="http://www.w3.org/2000/svg">
<path d="M0.476562 3.7852C0.476562 1.97834 1.9549 0.5 3.76176 0.5H15.26C17.0668 0.5 18.5452 1.97834 18.5452 3.7852V16.926C18.5452 18.5686 16.9026 18.5686 16.9026 18.5686V20.2112C16.9026 21.1146 16.1634 21.8538 15.26 21.8538C14.3565 21.8538 13.6174 21.1146 13.6174 20.2112V18.5686H5.40437V20.2112C5.40437 21.1146 4.66519 21.8538 3.76176 21.8538C2.85833 21.8538 2.11916 21.1146 2.11916 20.2112V18.5686C0.476562 18.5686 0.476562 16.926 0.476562 16.926V3.7852ZM2.94046 5.4278C2.48054 5.4278 2.11916 5.78918 2.11916 6.2491V11.1769C2.11916 11.6368 2.48054 11.9982 2.94046 11.9982H16.0813C16.5412 11.9982 16.9026 11.6368 16.9026 11.1769V6.2491C16.9026 5.78918 16.5412 5.4278 16.0813 5.4278H2.94046ZM3.76176 13.6408C2.85833 13.6408 2.11916 14.38 2.11916 15.2834C2.11916 16.1868 2.85833 16.926 3.76176 16.926C4.66519 16.926 5.40437 16.1868 5.40437 15.2834C5.40437 14.38 4.66519 13.6408 3.76176 13.6408ZM15.26 13.6408C14.3565 13.6408 13.6174 14.38 13.6174 15.2834C13.6174 16.1868 14.3565 16.926 15.26 16.926C16.1634 16.926 16.9026 16.1868 16.9026 15.2834C16.9026 14.38 16.1634 13.6408 15.26 13.6408ZM3.76176 2.9639C3.76176 3.42383 4.12314 3.7852 4.58307 3.7852H14.4387C14.8986 3.7852 15.26 3.42383 15.26 2.9639C15.26 2.50397 14.8986 2.1426 14.4387 2.1426H4.58307C4.12314 2.1426 3.76176 2.50397 3.76176 2.9639Z" fill="#8E8E8E"/>
</svg>
