<svg width="21" height="19" viewBox="0 0 21 19" fill="none" xmlns="http://www.w3.org/2000/svg">
<path d="M17.6651 2.03389H15.6484V1.11118C15.6484 0.866465 15.5422 0.631771 15.3531 0.45873C15.164 0.28569 14.9075 0.188477 14.6401 0.188477C14.3727 0.188477 14.1162 0.28569 13.9271 0.45873C13.738 0.631771 13.6318 0.866465 13.6318 1.11118V2.03389H7.58177V1.11118C7.58177 0.866465 7.47554 0.631771 7.28644 0.45873C7.09734 0.28569 6.84087 0.188477 6.57344 0.188477C6.30601 0.188477 6.04954 0.28569 5.86044 0.45873C5.67134 0.631771 5.56511 0.866465 5.56511 1.11118V2.03389H3.54844C2.74616 2.03389 1.97674 2.32553 1.40944 2.84465C0.842142 3.36377 0.523438 4.06785 0.523438 4.802V15.8745C0.523438 16.6086 0.842142 17.3127 1.40944 17.8318C1.97674 18.3509 2.74616 18.6426 3.54844 18.6426H17.6651C18.4674 18.6426 19.2368 18.3509 19.8041 17.8318C20.3714 17.3127 20.6901 16.6086 20.6901 15.8745V4.802C20.6901 4.06785 20.3714 3.36377 19.8041 2.84465C19.2368 2.32553 18.4674 2.03389 17.6651 2.03389ZM18.6734 15.8745C18.6734 16.1192 18.5672 16.3539 18.3781 16.5269C18.189 16.7 17.9325 16.7972 17.6651 16.7972H3.54844C3.28101 16.7972 3.02454 16.7 2.83544 16.5269C2.64634 16.3539 2.54011 16.1192 2.54011 15.8745V9.41552H18.6734V15.8745ZM18.6734 7.57012H2.54011V4.802C2.54011 4.55728 2.64634 4.32259 2.83544 4.14955C3.02454 3.97651 3.28101 3.8793 3.54844 3.8793H5.56511V4.802C5.56511 5.04672 5.67134 5.28141 5.86044 5.45445C6.04954 5.62749 6.30601 5.72471 6.57344 5.72471C6.84087 5.72471 7.09734 5.62749 7.28644 5.45445C7.47554 5.28141 7.58177 5.04672 7.58177 4.802V3.8793H13.6318V4.802C13.6318 5.04672 13.738 5.28141 13.9271 5.45445C14.1162 5.62749 14.3727 5.72471 14.6401 5.72471C14.9075 5.72471 15.164 5.62749 15.3531 5.45445C15.5422 5.28141 15.6484 5.04672 15.6484 4.802V3.8793H17.6651C17.9325 3.8793 18.189 3.97651 18.3781 4.14955C18.5672 4.32259 18.6734 4.55728 18.6734 4.802V7.57012Z" fill="#8E8E8E"/>
</svg>
