<svg width="71" height="143" viewBox="0 0 71 143" fill="none" xmlns="http://www.w3.org/2000/svg">
<path d="M34.7978 24.93C41.4617 24.93 46.8639 19.5278 46.8639 12.8639C46.8639 6.20002 41.4617 0.797852 34.7978 0.797852C28.1339 0.797852 22.7317 6.20002 22.7317 12.8639C22.7317 19.5278 28.1339 24.93 34.7978 24.93Z" fill="black"/>
<path d="M64.1607 92.9511L46.8762 45.456L46.7768 44.9676C46.7768 44.2743 47.3589 43.7127 48.0843 43.7127C48.7015 43.7127 49.2193 44.1251 49.3567 44.675L61.1069 75.4004C61.8879 77.1584 65.0997 78.3255 67.2116 78.3255C70.0343 78.3255 70.3269 72.7824 70.2654 72.4753L58.5153 42.1799C57.4944 35.3907 50.6379 28.5986 42.8133 28.5986H27.5003C19.6756 28.5986 12.3102 35.3907 11.2894 42.1799L0.0657053 72.4753C-0.188779 73.0574 0.065703 78.3255 3.11659 78.3255C5.48886 78.3255 8.64505 77.4977 9.2213 75.4004L20.5561 44.5434C20.6528 44.2963 20.8225 44.0846 21.0424 43.9362C21.2624 43.7878 21.5223 43.7098 21.7876 43.7127C22.5101 43.7127 23.0922 44.2743 23.0922 44.9646L23.0103 45.4122L6.17041 92.9511C6.13823 93.0915 6.17041 95.7328 6.17041 95.8762C6.17041 96.8883 8.61288 98.8013 9.67469 98.8013H20.5386V137.106C20.5386 140.148 23.218 142.678 26.3888 142.678C29.5596 142.678 32.239 140.145 32.239 137.106V98.775C32.239 97.9472 38.0892 97.9735 38.0892 98.8013V136.828C38.0892 139.87 40.7715 142.678 43.9394 142.678C47.1161 142.678 49.7897 139.867 49.7897 136.828V98.8013H61.1069C62.1658 98.8013 64.1607 96.8883 64.1607 95.8762C64.1607 95.6422 64.2456 93.1529 64.1607 92.9511Z" fill="black"/>
</svg>
