<svg width="17" height="17" viewBox="0 0 17 17" fill="none" xmlns="http://www.w3.org/2000/svg">
<path d="M16.0211 15.4487L13.1527 12.5803M12.7429 6.43385C12.7429 7.1872 12.5946 7.93318 12.3063 8.62919C12.018 9.3252 11.5954 9.95761 11.0627 10.4903C10.53 11.023 9.89759 11.4456 9.20158 11.7339C8.50557 12.0222 7.75959 12.1706 7.00623 12.1706C6.25288 12.1706 5.5069 12.0222 4.81089 11.7339C4.11488 11.4456 3.48247 11.023 2.94977 10.4903C2.41707 9.95761 1.99451 9.3252 1.70621 8.62919C1.41792 7.93318 1.26953 7.1872 1.26953 6.43385C1.26953 4.91238 1.87393 3.45323 2.94977 2.37739C4.02561 1.30154 5.48477 0.697144 7.00623 0.697144C8.5277 0.697144 9.98686 1.30154 11.0627 2.37739C12.1385 3.45323 12.7429 4.91238 12.7429 6.43385Z" stroke="#FAFAFA" strokeWidth="1.13616" strokeLinecap="round"/>
</svg>
