<svg width="59" height="159" viewBox="0 0 59 159" fill="none" xmlns="http://www.w3.org/2000/svg">
<path d="M13.1111 152.417C13.1111 156.459 15.6284 158.973 19.6667 158.973C23.7147 158.973 26.2222 156.459 26.2222 152.417V90.1396H32.7778V152.417C32.7778 156.452 35.2918 158.973 39.3333 158.973C43.3748 158.973 45.8889 156.459 45.8889 152.417V47.5285H49.1666V86.2522C49.1666 94.1025 59.0196 94.1025 59 86.2522V46.4174C59 37.7444 52.7525 31.1396 42.6111 31.1396H16.3889C7.14555 31.1396 0 36.7741 0 46.1748V86.8618C0 93.4174 9.83333 93.4174 9.83333 86.8618V47.5285H13.1111V152.417Z" fill="black"/>
<path d="M29.0902 27.0417C36.5576 27.0417 42.6111 20.9882 42.6111 13.5208C42.6111 6.05348 36.5576 0 29.0902 0C21.6229 0 15.5694 6.05348 15.5694 13.5208C15.5694 20.9882 21.6229 27.0417 29.0902 27.0417Z" fill="black"/>
</svg>
