<svg width="28" height="28" viewBox="0 0 28 28" fill="none" xmlns="http://www.w3.org/2000/svg">
<path d="M8.67164 7.33613C8.94552 5.91292 9.31885 4.63481 9.76391 3.55395C10.2546 2.35897 10.8203 1.4444 11.4072 0.84284C11.9908 0.242907 12.5435 0 13.044 0C13.5445 0 14.0971 0.242907 14.6807 0.84284C15.2676 1.44603 15.8333 2.35897 16.324 3.55395C16.7691 4.63481 17.1424 5.91292 17.4163 7.33613H8.67164ZM8.25593 2.93445C8.60391 2.05718 9.05659 1.22516 9.60414 0.45647C7.81266 0.948307 6.14656 1.81628 4.71684 3.00255C3.28713 4.18882 2.12664 5.66616 1.31268 7.33613H7.01367C7.31038 5.69447 7.73261 4.20279 8.25593 2.93445ZM17.832 2.93445C17.4839 2.05776 17.0312 1.2263 16.4838 0.458101C18.2751 0.949756 19.9411 1.81748 21.3709 3.00346C22.8006 4.18945 23.9611 5.66646 24.7753 7.33613H19.0743C18.7776 5.69447 18.3553 4.20279 17.832 2.93445ZM19.3204 8.96638H25.4371C25.8186 10.1271 26.0403 11.3596 26.0795 12.6393C24.879 11.8284 23.4606 11.4009 22.012 11.4134C21.1317 11.4134 20.3035 11.5601 19.5438 11.8291C19.5111 10.8721 19.4366 9.91691 19.3204 8.96638ZM17.9331 12.6475C17.9198 11.4165 17.8343 10.1874 17.6771 8.96638H8.4108C8.2374 10.318 8.15136 11.6793 8.15322 13.042C8.15322 14.4685 8.24451 15.8363 8.4108 17.1176H14.9025C15.3459 15.2787 16.4186 13.6794 17.9331 12.6475ZM14.6791 18.7479H8.67164C8.94552 20.1711 9.31885 21.4492 9.76391 22.5301C10.2546 23.7251 10.8203 24.6396 11.4072 25.2412C11.9908 25.8411 12.5435 26.084 13.044 26.084C13.5445 26.084 14.0971 25.8411 14.6807 25.2412C15.0948 24.8173 15.4991 24.2353 15.8741 23.5082C15.0736 21.9856 14.6742 20.4597 14.6742 19.0446L14.6791 18.7479ZM1.31268 18.7479C2.127 20.4177 3.28782 21.8949 4.71782 23.0809C6.14781 24.2668 7.81414 25.1345 9.60577 25.6259C9.05787 24.8583 8.60464 24.0274 8.25593 23.1512C7.73424 21.8796 7.31038 20.3896 7.01367 18.7479H1.31268ZM6.76751 17.1176H0.650802C0.219369 15.8022 0.000341516 14.4264 0.00196205 13.042C0.00196205 11.6188 0.230197 10.2494 0.650802 8.96638H6.76751C6.60774 10.2624 6.52297 11.6302 6.52297 13.042C6.52297 14.4538 6.60774 15.8216 6.76751 17.1176ZM27.7162 19.0446C27.7162 15.7303 25.3279 13.0436 22.012 13.0436C18.6977 13.0436 16.3045 15.7303 16.3045 19.0446C16.3045 21.5291 17.9054 24.7994 21.6126 27.5806C21.849 27.7599 22.175 27.7599 22.4114 27.5806C26.1219 24.7994 27.7162 21.5291 27.7162 19.0446ZM24.4557 18.7479C24.4557 19.3964 24.1981 20.0184 23.7395 20.477C23.2809 20.9356 22.6589 21.1933 22.0104 21.1933C21.3618 21.1933 20.7398 20.9356 20.2812 20.477C19.8226 20.0184 19.565 19.3964 19.565 18.7479C19.565 18.0993 19.8226 17.4773 20.2812 17.0188C20.7398 16.5602 21.3618 16.3025 22.0104 16.3025C22.6589 16.3025 23.2809 16.5602 23.7395 17.0188C24.1981 17.4773 24.4557 18.0993 24.4557 18.7479Z" fill="#676767"/>
</svg>
