<svg width="28" height="28" viewBox="0 0 28 28" fill="none" xmlns="http://www.w3.org/2000/svg">
<path d="M8.66969 7.33613C8.94357 5.91292 9.3169 4.63481 9.76195 3.55395C10.2527 2.35897 10.8184 1.4444 11.4052 0.84284C11.9889 0.242907 12.5415 0 13.042 0C13.5425 0 14.0952 0.242907 14.6788 0.84284C15.2657 1.44603 15.8314 2.35897 16.3221 3.55395C16.7671 4.63481 17.1405 5.91292 17.4144 7.33613H8.66969ZM8.25397 2.93445C8.60195 2.05718 9.05464 1.22516 9.60219 0.45647C7.8107 0.948307 6.1446 1.81628 4.71489 3.00255C3.28518 4.18882 2.12468 5.66616 1.31073 7.33613H7.01172C7.30843 5.69447 7.73066 4.20279 8.25397 2.93445ZM17.8301 2.93445C17.4819 2.05776 17.0293 1.2263 16.4819 0.458101C18.2732 0.949756 19.9392 1.81748 21.3689 3.00346C22.7986 4.18945 23.9592 5.66646 24.7733 7.33613H19.0723C18.7756 5.69447 18.3534 4.20279 17.8301 2.93445ZM19.3185 8.96638H25.4352C25.8167 10.1271 26.0384 11.3596 26.0775 12.6393C24.877 11.8284 23.4587 11.4009 22.01 11.4134C21.1297 11.4134 20.3015 11.5601 19.5418 11.8291C19.5092 10.8721 19.4346 9.91691 19.3185 8.96638ZM17.9311 12.6475C17.9178 11.4165 17.8324 10.1874 17.6752 8.96638H8.40885C8.23545 10.318 8.14941 11.6793 8.15127 13.042C8.15127 14.4685 8.24256 15.8363 8.40885 17.1176H14.9005C15.3439 15.2787 16.4166 13.6794 17.9311 12.6475ZM14.6772 18.7479H8.66969C8.94357 20.1711 9.3169 21.4492 9.76195 22.5301C10.2527 23.7251 10.8184 24.6396 11.4052 25.2412C11.9889 25.8411 12.5415 26.084 13.042 26.084C13.5425 26.084 14.0952 25.8411 14.6788 25.2412C15.0929 24.8173 15.4972 24.2353 15.8721 23.5082C15.0717 21.9856 14.6723 20.4597 14.6723 19.0446L14.6772 18.7479ZM1.31073 18.7479C2.12504 20.4177 3.28587 21.8949 4.71587 23.0809C6.14586 24.2668 7.81219 25.1345 9.60382 25.6259C9.05592 24.8583 8.60269 24.0274 8.25397 23.1512C7.73229 21.8796 7.30843 20.3896 7.01172 18.7479H1.31073ZM6.76555 17.1176H0.648849C0.217415 15.8022 -0.00161161 14.4264 8.92687e-06 13.042C8.92687e-06 11.6188 0.228244 10.2494 0.648849 8.96638H6.76555C6.60579 10.2624 6.52101 11.6302 6.52101 13.042C6.52101 14.4538 6.60579 15.8216 6.76555 17.1176ZM27.7143 19.0446C27.7143 15.7303 25.326 13.0436 22.01 13.0436C18.6957 13.0436 16.3025 15.7303 16.3025 19.0446C16.3025 21.5291 17.9034 24.7994 21.6106 27.5806C21.847 27.7599 22.1731 27.7599 22.4094 27.5806C26.1199 24.7994 27.7143 21.5291 27.7143 19.0446ZM24.4538 18.7479C24.4538 19.3964 24.1961 20.0184 23.7375 20.477C23.2789 20.9356 22.657 21.1933 22.0084 21.1933C21.3598 21.1933 20.7379 20.9356 20.2793 20.477C19.8207 20.0184 19.563 19.3964 19.563 18.7479C19.563 18.0993 19.8207 17.4773 20.2793 17.0188C20.7379 16.5602 21.3598 16.3025 22.0084 16.3025C22.657 16.3025 23.2789 16.5602 23.7375 17.0188C24.1961 17.4773 24.4538 18.0993 24.4538 18.7479Z" fill="white"/>
</svg>
