<svg width="76" height="58" viewBox="0 0 76 58" fill="none" xmlns="http://www.w3.org/2000/svg">
<path d="M40.4016 0C39.4575 0 38.552 0.37505 37.8844 1.04264C37.2168 1.71024 36.8418 2.61569 36.8418 3.55981V32.0383C36.8418 32.9824 37.2168 33.8879 37.8844 34.5555C38.552 35.2231 39.4575 35.5981 40.4016 35.5981H72.4399C73.384 35.5981 74.2895 35.2231 74.9571 34.5555C75.6247 33.8879 75.9997 32.9824 75.9997 32.0383V3.55981C75.9997 2.61569 75.6247 1.71024 74.9571 1.04264C74.2895 0.37505 73.384 0 72.4399 0H40.4016ZM50.1911 1.77991H62.686C62.9221 1.77991 63.1484 1.87367 63.3153 2.04057C63.4822 2.20747 63.576 2.43383 63.576 2.66986C63.576 2.90589 63.4822 3.13225 63.3153 3.29915C63.1484 3.46605 62.9221 3.55981 62.686 3.55981H50.1911C49.9551 3.55981 49.7287 3.46605 49.5618 3.29915C49.3949 3.13225 49.3011 2.90589 49.3011 2.66986C49.3011 2.43383 49.3949 2.20747 49.5618 2.04057C49.7287 1.87367 49.9551 1.77991 50.1911 1.77991ZM42.1815 7.11962H54.6409V21.3589H42.1815C41.7095 21.3589 41.2567 21.1713 40.9229 20.8375C40.5891 20.5038 40.4016 20.051 40.4016 19.579V8.89953C40.4016 8.42747 40.5891 7.97474 40.9229 7.64095C41.2567 7.30715 41.7095 7.11962 42.1815 7.11962ZM58.2007 7.11962H70.66C71.1321 7.11962 71.5848 7.30715 71.9186 7.64095C72.2524 7.97474 72.4399 8.42747 72.4399 8.89953V19.579C72.4399 20.051 72.2524 20.5038 71.9186 20.8375C71.5848 21.1713 71.1321 21.3589 70.66 21.3589H58.2007V7.11962ZM47.5212 24.9187C48.4654 24.9187 49.3708 25.2937 50.0384 25.9613C50.706 26.6289 51.081 27.5344 51.081 28.4785C51.081 29.4226 50.706 30.3281 50.0384 30.9957C49.3708 31.6633 48.4654 32.0383 47.5212 32.0383C46.5771 32.0383 45.6717 31.6633 45.0041 30.9957C44.3365 30.3281 43.9614 29.4226 43.9614 28.4785C43.9614 27.5344 44.3365 26.6289 45.0041 25.9613C45.6717 25.2937 46.5771 24.9187 47.5212 24.9187ZM65.3203 24.9187C66.2644 24.9187 67.1699 25.2937 67.8375 25.9613C68.5051 26.6289 68.8801 27.5344 68.8801 28.4785C68.8801 29.4226 68.5051 30.3281 67.8375 30.9957C67.1699 31.6633 66.2644 32.0383 65.3203 32.0383C64.3762 32.0383 63.4707 31.6633 62.8031 30.9957C62.1355 30.3281 61.7605 29.4226 61.7605 28.4785C61.7605 27.5344 62.1355 26.6289 62.8031 25.9613C63.4707 25.2937 64.3762 24.9187 65.3203 24.9187ZM66.9044 39.1366C66.631 39.1627 66.3673 39.2512 66.1336 39.3953C65.8998 39.5394 65.7022 39.7352 65.5561 39.9677C65.4099 40.2001 65.3191 40.4631 65.2905 40.7362C65.262 41.0093 65.2965 41.2853 65.3915 41.543L65.9967 42.7177H46.8449L47.3076 41.7566C47.4679 41.3328 47.4606 40.8639 47.2871 40.4454C47.1136 40.0268 46.7871 39.6902 46.374 39.5041C45.9609 39.318 45.4924 39.2964 45.064 39.4437C44.6356 39.5911 44.2794 39.8963 44.0682 40.2971L40.5084 47.4167C40.4327 47.6216 40.3965 47.8391 40.4016 48.0575C40.4016 48.5295 40.5891 48.9823 40.9229 49.316C41.2567 49.6498 41.7095 49.8374 42.1815 49.8374C42.4965 49.8357 42.805 49.7487 43.0745 49.5857C43.3441 49.4228 43.5644 49.1899 43.7122 48.9118V48.7338H43.9614L45.065 46.2776H67.7766L68.8801 48.7338V48.9118C69.0279 49.1899 69.2483 49.4228 69.5178 49.5857C69.7873 49.7487 70.0959 49.8357 70.4108 49.8374C70.8829 49.8374 71.3356 49.6498 71.6694 49.316C72.0032 48.9823 72.1907 48.5295 72.1907 48.0575C72.2616 47.7771 72.2616 47.4835 72.1907 47.2031L68.6309 40.0835C68.4682 39.7733 68.2177 39.518 67.9105 39.3495C67.6034 39.1811 67.2534 39.107 66.9044 39.1366Z" fill="black"/>
<path d="M0 25.2937C0 22.1115 2.60367 19.5078 5.78594 19.5078H26.0367C29.219 19.5078 31.8226 22.1115 31.8226 25.2937V48.4375C31.8226 51.3305 28.9297 51.3305 28.9297 51.3305V54.2234C28.9297 55.8146 27.6278 57.1164 26.0367 57.1164C24.4456 57.1164 23.1437 55.8146 23.1437 54.2234V51.3305H8.6789V54.2234C8.6789 55.8146 7.37707 57.1164 5.78594 57.1164C4.1948 57.1164 2.89297 55.8146 2.89297 54.2234V51.3305C0 51.3305 0 48.4375 0 48.4375V25.2937ZM4.33945 28.1867C3.52942 28.1867 2.89297 28.8232 2.89297 29.6332V38.3121C2.89297 39.1221 3.52942 39.7586 4.33945 39.7586H27.4832C28.2932 39.7586 28.9297 39.1221 28.9297 38.3121V29.6332C28.9297 28.8232 28.2932 28.1867 27.4832 28.1867H4.33945ZM5.78594 42.6516C4.1948 42.6516 2.89297 43.9534 2.89297 45.5445C2.89297 47.1357 4.1948 48.4375 5.78594 48.4375C7.37707 48.4375 8.6789 47.1357 8.6789 45.5445C8.6789 43.9534 7.37707 42.6516 5.78594 42.6516ZM26.0367 42.6516C24.4456 42.6516 23.1437 43.9534 23.1437 45.5445C23.1437 47.1357 24.4456 48.4375 26.0367 48.4375C27.6278 48.4375 28.9297 47.1357 28.9297 45.5445C28.9297 43.9534 27.6278 42.6516 26.0367 42.6516ZM5.78594 23.8473C5.78594 24.6573 6.42239 25.2937 7.23242 25.2937H24.5902C25.4003 25.2937 26.0367 24.6573 26.0367 23.8473C26.0367 23.0372 25.4003 22.4008 24.5902 22.4008H7.23242C6.42239 22.4008 5.78594 23.0372 5.78594 23.8473Z" fill="black"/>
</svg>
