<svg width="101" height="60" viewBox="0 0 101 60" fill="none" xmlns="http://www.w3.org/2000/svg">
<path d="M65.9485 34.7508C65.9485 34.7508 51.331 39.2593 33.5914 6.28608H30.0141V1.46094H9.93985V6.77733H7.9355C7.9355 6.77733 4.87849 5.51071 1.93103 20.8266V38.4857C1.93103 38.4857 2.1758 46.3593 6.80581 46.9292C11.4358 47.4992 65.4573 46.9292 65.4573 46.9292C65.4573 46.9292 70.1386 42.0288 65.9502 34.7474L65.9485 34.7508Z" stroke="black" stroke-width="1.71165" stroke-linecap="round" stroke-linejoin="round"/>
<path d="M39.7003 25.4653C40.3449 25.4653 40.9631 25.7214 41.4189 26.1772C41.8747 26.633 42.1308 27.2513 42.1308 27.8959V33.2944C42.1308 33.939 41.8747 34.5573 41.4189 35.0131C40.9631 35.4689 40.3449 35.725 39.7003 35.725C39.0556 35.725 38.4374 35.4689 37.9816 35.0131C37.5258 34.5573 37.2697 33.939 37.2697 33.2944V27.8959C37.2697 27.2513 37.5258 26.633 37.9816 26.1772C38.4374 25.7214 39.0556 25.4653 39.7003 25.4653ZM47.2058 31.273C47.7603 31.273 48.292 31.4931 48.6843 31.885C49.0765 32.2769 49.297 32.8085 49.2975 33.3629V37.2723C49.2819 37.8165 49.0548 38.3331 48.6644 38.7125C48.274 39.0919 47.7511 39.3041 47.2067 39.3041C46.6623 39.3041 46.1394 39.0919 45.749 38.7125C45.3586 38.3331 45.1315 37.8165 45.1159 37.2723V33.3646C45.1157 33.09 45.1696 32.8181 45.2745 32.5643C45.3794 32.3105 45.5334 32.0799 45.7274 31.8857C45.9215 31.6914 46.152 31.5373 46.4057 31.4322C46.6593 31.3271 46.9313 31.273 47.2058 31.273ZM54.0507 35.1344C54.285 35.1344 54.5169 35.1806 54.7333 35.2702C54.9497 35.3598 55.1463 35.4912 55.3119 35.6568C55.4775 35.8225 55.6089 36.0191 55.6985 36.2355C55.7882 36.4518 55.8343 36.6838 55.8343 36.918V39.5437C55.8343 40.0167 55.6464 40.4703 55.3119 40.8048C54.9774 41.1393 54.5238 41.3272 54.0507 41.3272C53.5777 41.3272 53.1241 41.1393 52.7896 40.8048C52.4551 40.4703 52.2672 40.0167 52.2672 39.5437V36.918C52.2672 36.6838 52.3133 36.4518 52.403 36.2355C52.4926 36.0191 52.624 35.8225 52.7896 35.6568C52.9552 35.4912 53.1518 35.3598 53.3682 35.2702C53.5846 35.1806 53.8165 35.1344 54.0507 35.1344ZM60.5602 37.4623C60.9406 37.4623 61.3054 37.6134 61.5744 37.8824C61.8434 38.1514 61.9945 38.5162 61.9945 38.8967V41.0773C61.9945 41.4577 61.8434 41.8226 61.5744 42.0915C61.3054 42.3605 60.9406 42.5117 60.5602 42.5117C60.1797 42.5117 59.8149 42.3605 59.5459 42.0915C59.2769 41.8226 59.1258 41.4577 59.1258 41.0773V38.8967C59.1258 38.5162 59.2769 38.1514 59.5459 37.8824C59.8149 37.6134 60.1797 37.4623 60.5602 37.4623Z" stroke="black" stroke-width="1.71165" stroke-linecap="round" stroke-linejoin="round"/>
<path d="M9.28411 37.6561C11.5084 37.6561 13.3116 35.8529 13.3116 33.6286C13.3116 31.4043 11.5084 29.6011 9.28411 29.6011C7.05977 29.6011 5.25659 31.4043 5.25659 33.6286C5.25659 35.8529 7.05977 37.6561 9.28411 37.6561Z" stroke="black" stroke-width="1.71165" stroke-linecap="round" stroke-linejoin="round"/>
<path d="M26.5133 37.6561C28.7376 37.6561 30.5408 35.8529 30.5408 33.6286C30.5408 31.4043 28.7376 29.6011 26.5133 29.6011C24.289 29.6011 22.4858 31.4043 22.4858 33.6286C22.4858 35.8529 24.289 37.6561 26.5133 37.6561Z" stroke="black" stroke-width="1.71165" stroke-linecap="round" stroke-linejoin="round"/>
<path d="M24.9165 11.9021C26.3583 11.9021 27.741 12.4748 28.7605 13.4943C29.78 14.5138 30.3527 15.8965 30.3527 17.3383C30.3527 18.7801 29.78 20.1628 28.7605 21.1823C27.741 22.2018 26.3583 22.7745 24.9165 22.7745M12.3701 11.9021C10.9283 11.9021 9.54561 12.4748 8.52613 13.4943C7.50664 14.5138 6.9339 15.8965 6.9339 17.3383C6.9339 18.7801 7.50664 20.1628 8.52613 21.1823C9.54561 22.2018 10.9283 22.7745 12.3701 22.7745H24.9165M24.9165 11.9021H12.3701Z" stroke="black" stroke-width="1.71165" stroke-linecap="round" stroke-linejoin="round"/>
<path d="M66.4478 50.6434C66.6992 50.6154 66.9537 50.6443 67.1924 50.728C67.431 50.8117 67.6478 50.948 67.8267 51.1269C68.0055 51.3057 68.1418 51.5225 68.2255 51.7612C68.3092 51.9999 68.3381 52.2543 68.3101 52.5057C68.3101 54.5563 67.5228 54.32 67.5228 54.32H65.503C43.9396 54.32 34.6214 59.1024 34.6214 59.1024H1.55573V55.2906H5.01497V51.1484H14.3229V55.1211H27.9751V50.6417L66.4478 50.6434Z" stroke="black" stroke-width="1.71165" stroke-linejoin="round"/>
<line x1="73.5133" y1="36.3258" x2="100.258" y2="36.3258" stroke="black" stroke-width="1.48366" stroke-linecap="round"/>
<line x1="73.5133" y1="42.264" x2="88.3499" y2="42.264" stroke="black" stroke-width="1.48366" stroke-linecap="round"/>
<line x1="73.5133" y1="48.1954" x2="88.3499" y2="48.1954" stroke="black" stroke-width="1.48366" stroke-linecap="round"/>
</svg>
