<svg width="16" height="25" viewBox="0 0 16 25" fill="none" xmlns="http://www.w3.org/2000/svg">
<path d="M4.87527 2.59736C2.09677 3.17202 1.21173 3.76917 0.967712 5.39207V18.9778C1.58191 20.0056 2.02892 20.4622 3.11856 20.9284H12.9269C14.0013 20.2909 14.4444 19.872 14.875 18.9778V17.6546V5.39207C14.5922 3.67238 13.6625 3.09183 10.9224 2.59736C8.56211 2.3786 7.23558 2.37082 4.87527 2.59736Z" fill="#8E8E8E"/>
<ellipse cx="6.78568" cy="0.888897" rx="0.900909" ry="0.888897" fill="#8E8E8E"/>
<ellipse cx="3.39243" cy="15.3966" rx="0.962012" ry="0.949185" fill="white"/>
<ellipse cx="12.4839" cy="15.3966" rx="0.962012" ry="0.949185" fill="white"/>
<path d="M3.57809 21.2997H2.28413L0 24.2365H1.33897L2.16036 23.2576H13.6598L14.3461 24.2365H15.9214L13.6598 21.2997H12.3208L13.1872 22.3012H2.7342L3.57809 21.2997Z" fill="#8E8E8E"/>
<ellipse cx="9.0361" cy="0.888897" rx="0.900909" ry="0.888897" fill="#8E8E8E"/>
<path d="M3.3194 6.211C2.75944 6.30227 2.52996 6.44118 2.41925 6.99863V11.0943C2.7918 12.1746 3.16706 12.5221 4.06202 12.6583H11.8708C12.8418 12.3225 13.1756 11.9906 13.4236 11.1618V6.99863C13.4281 6.47958 13.2624 6.3112 12.7147 6.211H3.3194Z" fill="white"/>
<path d="M7.88189 18.273C5.16213 18.2693 0.967712 17.5754 0.967712 17.5754V18.4132C0.967712 18.4132 5.1559 19.2477 7.88189 19.2519C10.6384 19.2562 14.8638 18.4193 14.8638 18.4193V17.5754C14.8638 17.5754 10.6323 18.2767 7.88189 18.273Z" fill="white"/>
<rect x="5.24347" y="3.91565" width="5.35589" height="0.900149" rx="0.450075" fill="#8E8E8E"/>
</svg>
