<svg width="19" height="24" viewBox="0 0 19 24" fill="none" xmlns="http://www.w3.org/2000/svg">
<path d="M1.7095 0.710938C1.27385 0.710938 0.856049 0.883997 0.548001 1.19204C0.239954 1.50009 0.0668945 1.91789 0.0668945 2.35354V15.4943C0.0668945 15.93 0.239954 16.3478 0.548001 16.6558C0.856049 16.9639 1.27385 17.1369 1.7095 17.1369H16.4929C16.9285 17.1369 17.3464 16.9639 17.6544 16.6558C17.9624 16.3478 18.1355 15.93 18.1355 15.4943V2.35354C18.1355 1.91789 17.9624 1.50009 17.6544 1.19204C17.3464 0.883997 16.9285 0.710938 16.4929 0.710938H1.7095ZM6.22665 1.53224H11.9922C12.1011 1.53224 12.2055 1.5755 12.2826 1.65251C12.3596 1.72953 12.4028 1.83398 12.4028 1.94289C12.4028 2.0518 12.3596 2.15625 12.2826 2.23326C12.2055 2.31027 12.1011 2.35354 11.9922 2.35354H6.22665C6.11774 2.35354 6.01329 2.31027 5.93627 2.23326C5.85926 2.15625 5.816 2.0518 5.816 1.94289C5.816 1.83398 5.85926 1.72953 5.93627 1.65251C6.01329 1.5755 6.11774 1.53224 6.22665 1.53224ZM2.5308 3.99614H8.2799V10.5665H2.5308C2.31297 10.5665 2.10407 10.48 1.95005 10.326C1.79603 10.172 1.7095 9.96307 1.7095 9.74524V4.81744C1.7095 4.59962 1.79603 4.39072 1.95005 4.23669C2.10407 4.08267 2.31297 3.99614 2.5308 3.99614ZM9.9225 3.99614H15.6716C15.8894 3.99614 16.0983 4.08267 16.2524 4.23669C16.4064 4.39072 16.4929 4.59962 16.4929 4.81744V9.74524C16.4929 9.96307 16.4064 10.172 16.2524 10.326C16.0983 10.48 15.8894 10.5665 15.6716 10.5665H9.9225V3.99614ZM4.9947 12.2091C5.43034 12.2091 5.84814 12.3822 6.15619 12.6903C6.46424 12.9983 6.6373 13.4161 6.6373 13.8517C6.6373 14.2874 6.46424 14.7052 6.15619 15.0132C5.84814 15.3213 5.43034 15.4943 4.9947 15.4943C4.55905 15.4943 4.14125 15.3213 3.8332 15.0132C3.52516 14.7052 3.3521 14.2874 3.3521 13.8517C3.3521 13.4161 3.52516 12.9983 3.8332 12.6903C4.14125 12.3822 4.55905 12.2091 4.9947 12.2091ZM13.2077 12.2091C13.6433 12.2091 14.0611 12.3822 14.3692 12.6903C14.6772 12.9983 14.8503 13.4161 14.8503 13.8517C14.8503 14.2874 14.6772 14.7052 14.3692 15.0132C14.0611 15.3213 13.6433 15.4943 13.2077 15.4943C12.7721 15.4943 12.3543 15.3213 12.0462 15.0132C11.7382 14.7052 11.5651 14.2874 11.5651 13.8517C11.5651 13.4161 11.7382 12.9983 12.0462 12.6903C12.3543 12.3822 12.7721 12.2091 13.2077 12.2091ZM13.9387 18.7697C13.8125 18.7817 13.6908 18.8226 13.583 18.8891C13.4751 18.9555 13.3839 19.0459 13.3165 19.1532C13.249 19.2605 13.2071 19.3818 13.194 19.5078C13.1808 19.6338 13.1967 19.7612 13.2406 19.8801L13.5198 20.4221H4.6826L4.89614 19.9786C4.97011 19.7831 4.96672 19.5667 4.88667 19.3736C4.80662 19.1805 4.65594 19.0251 4.46534 18.9393C4.27473 18.8534 4.05855 18.8434 3.86086 18.9114C3.66316 18.9794 3.49884 19.1202 3.40137 19.3052L1.75877 22.5904C1.72386 22.685 1.70714 22.7853 1.7095 22.8861C1.7095 23.1039 1.79603 23.3128 1.95005 23.4668C2.10407 23.6208 2.31297 23.7074 2.5308 23.7074C2.67612 23.7066 2.81851 23.6664 2.94287 23.5912C3.06722 23.5161 3.1689 23.4086 3.23711 23.2803V23.1981H3.3521L3.8613 22.0648H14.3411L14.8503 23.1981V23.2803C14.9185 23.4086 15.0202 23.5161 15.1446 23.5912C15.2689 23.6664 15.4113 23.7066 15.5566 23.7074C15.7744 23.7074 15.9833 23.6208 16.1374 23.4668C16.2914 23.3128 16.3779 23.1039 16.3779 22.8861C16.4106 22.7567 16.4106 22.6212 16.3779 22.4918L14.7353 19.2066C14.6603 19.0635 14.5446 18.9457 14.4029 18.868C14.2612 18.7902 14.0997 18.7561 13.9387 18.7697Z" fill="white"/>
</svg>
