<svg width="35" height="26" viewBox="0 0 35 26" fill="none" xmlns="http://www.w3.org/2000/svg">
<path d="M19.577 10.7999V12.3288C18.6777 12.3052 17.9434 12.667 17.9434 13.3223V14.5037C17.9433 15.759 18.7076 16.3 19.5032 16.4587V21.7818V23.4785C19.5992 23.7662 19.8076 23.8126 20.3893 23.7396V25.1939C20.4806 25.6825 20.6353 25.7848 20.943 25.9117H22.2998C22.6393 25.7558 22.7386 25.5816 22.8351 25.1939V23.7396H30.0436V25.1939C30.1543 25.6075 30.2917 25.7684 30.6897 25.9117H31.9911C32.3495 25.7475 32.4469 25.5815 32.4895 25.1939V23.7396C33.0898 23.7669 33.267 23.6721 33.2556 23.2828V20.9894V16.4587C34.2711 16.277 35 15.8328 35 14.5037V13.3223C35 12.3288 34.1799 12.2336 33.2556 12.3288V10.7999C33.2556 8.60905 31.2527 7.82127 28.9914 7.82127C26.7783 7.73092 25.5375 7.72247 23.3243 7.82127C21.6168 7.8975 19.577 8.99128 19.577 10.7999Z" fill="#8E8E8E"/>
<path d="M26.5086 21.8599C23.7397 21.8747 19.4847 20.8907 19.4847 20.8907V21.7399C19.4847 21.7399 23.7392 22.709 26.5086 22.7182C29.1683 22.7271 33.2648 21.8599 33.2648 21.8599V20.8907C33.2648 20.8907 29.174 21.8456 26.5086 21.8599Z" fill="white"/>
<path d="M32.5634 11.2825H20.3708V16.3128C20.7358 17.0649 21.0314 17.2733 21.6722 17.3742H31.3451C32.1048 17.156 32.345 16.9052 32.5634 16.3128V11.2825Z" fill="white"/>
<rect x="23.5736" y="9.18732" width="5.66709" height="0.922979" rx="0.461489" fill="white"/>
<ellipse cx="21.6168" cy="19.3752" rx="0.793762" ry="0.773409" fill="white"/>
<ellipse cx="31.2896" cy="19.3752" rx="0.793762" ry="0.773409" fill="white"/>
<path d="M4.66875 2.48751C2.0078 3.03786 1.16021 3.60975 0.926514 5.16399V18.175C1.51472 19.1593 1.94283 19.5966 2.98636 20.043H12.3797C13.4087 19.4325 13.833 19.0313 14.2454 18.175V16.9077V5.16399C13.9745 3.51705 13.0842 2.96107 10.4601 2.48751C8.19961 2.27801 6.9292 2.27056 4.66875 2.48751Z" fill="#8E8E8E"/>
<ellipse cx="6.49841" cy="0.851291" rx="0.862794" ry="0.851291" fill="#8E8E8E"/>
<ellipse cx="3.24883" cy="14.7452" rx="0.921312" ry="0.909027" fill="white"/>
<ellipse cx="11.9557" cy="14.7452" rx="0.921312" ry="0.909027" fill="white"/>
<path d="M3.42671 20.3986H2.18749L0 23.2111H1.28232L2.06896 22.2736H13.0819L13.7392 23.2111H15.2478L13.0819 20.3986H11.7995L12.6293 21.3577H2.61853L3.42671 20.3986Z" fill="#8E8E8E"/>
<ellipse cx="8.65357" cy="0.851291" rx="0.862794" ry="0.851291" fill="#8E8E8E"/>
<path d="M3.17872 5.94824C2.64245 6.03565 2.42267 6.16869 2.31665 6.70255V10.625C2.67344 11.6595 3.03282 11.9924 3.88992 12.1228H11.3683C12.2982 11.8011 12.6179 11.4833 12.8554 10.6896V6.70255C12.8598 6.20546 12.701 6.04421 12.1765 5.94824H3.17872Z" fill="white"/>
<path d="M7.54817 17.4999C4.94348 17.4964 0.926514 16.8318 0.926514 16.8318V17.6343C0.926514 17.6343 4.93751 18.4334 7.54817 18.4374C10.1881 18.4415 14.2347 17.64 14.2347 17.64V16.8318C14.2347 16.8318 10.1822 17.5035 7.54817 17.4999Z" fill="white"/>
<rect x="5.02136" y="3.75006" width="5.1293" height="0.862066" rx="0.431033" fill="white"/>
</svg>
