<svg width="36" height="27" viewBox="0 0 36 27" fill="none" xmlns="http://www.w3.org/2000/svg">
<path d="M18.6426 0C18.207 0 17.7892 0.173059 17.4811 0.481107C17.1731 0.789154 17 1.20696 17 1.6426V14.7834C17 15.2191 17.1731 15.6369 17.4811 15.9449C17.7892 16.253 18.207 16.426 18.6426 16.426H33.426C33.8617 16.426 34.2795 16.253 34.5875 15.9449C34.8956 15.6369 35.0686 15.2191 35.0686 14.7834V1.6426C35.0686 1.20696 34.8956 0.789154 34.5875 0.481107C34.2795 0.173059 33.8617 0 33.426 0H18.6426ZM23.1598 0.821301H28.9253C29.0342 0.821301 29.1386 0.864565 29.2157 0.941577C29.2927 1.01859 29.3359 1.12304 29.3359 1.23195C29.3359 1.34086 29.2927 1.44531 29.2157 1.52232C29.1386 1.59934 29.0342 1.6426 28.9253 1.6426H23.1598C23.0508 1.6426 22.9464 1.59934 22.8694 1.52232C22.7924 1.44531 22.7491 1.34086 22.7491 1.23195C22.7491 1.12304 22.7924 1.01859 22.8694 0.941577C22.9464 0.864565 23.0508 0.821301 23.1598 0.821301ZM19.4639 3.2852H25.213V9.85561H19.4639C19.2461 9.85561 19.0372 9.76908 18.8832 9.61505C18.7291 9.46103 18.6426 9.25213 18.6426 9.03431V4.1065C18.6426 3.88868 18.7291 3.67978 18.8832 3.52576C19.0372 3.37173 19.2461 3.2852 19.4639 3.2852ZM26.8556 3.2852H32.6047C32.8225 3.2852 33.0314 3.37173 33.1855 3.52576C33.3395 3.67978 33.426 3.88868 33.426 4.1065V9.03431C33.426 9.25213 33.3395 9.46103 33.1855 9.61505C33.0314 9.76908 32.8225 9.85561 32.6047 9.85561H26.8556V3.2852ZM21.9278 11.4982C22.3634 11.4982 22.7812 11.6713 23.0893 11.9793C23.3973 12.2874 23.5704 12.7052 23.5704 13.1408C23.5704 13.5765 23.3973 13.9943 23.0893 14.3023C22.7812 14.6103 22.3634 14.7834 21.9278 14.7834C21.4922 14.7834 21.0744 14.6103 20.7663 14.3023C20.4583 13.9943 20.2852 13.5765 20.2852 13.1408C20.2852 12.7052 20.4583 12.2874 20.7663 11.9793C21.0744 11.6713 21.4922 11.4982 21.9278 11.4982ZM30.1408 11.4982C30.5765 11.4982 30.9943 11.6713 31.3023 11.9793C31.6103 12.2874 31.7834 12.7052 31.7834 13.1408C31.7834 13.5765 31.6103 13.9943 31.3023 14.3023C30.9943 14.6103 30.5765 14.7834 30.1408 14.7834C29.7052 14.7834 29.2874 14.6103 28.9793 14.3023C28.6713 13.9943 28.4982 13.5765 28.4982 13.1408C28.4982 12.7052 28.6713 12.2874 28.9793 11.9793C29.2874 11.6713 29.7052 11.4982 30.1408 11.4982ZM30.8718 18.0588C30.7456 18.0708 30.6239 18.1116 30.5161 18.1781C30.4082 18.2446 30.317 18.335 30.2496 18.4422C30.1822 18.5495 30.1402 18.6708 30.1271 18.7969C30.1139 18.9229 30.1298 19.0503 30.1737 19.1692L30.4529 19.7112H21.6157L21.8292 19.2677C21.9032 19.0722 21.8998 18.8558 21.8198 18.6627C21.7397 18.4695 21.589 18.3142 21.3984 18.2283C21.2078 18.1425 20.9917 18.1325 20.794 18.2005C20.5963 18.2685 20.4319 18.4093 20.3345 18.5942L18.6919 21.8794C18.657 21.974 18.6403 22.0743 18.6426 22.1751C18.6426 22.3929 18.7291 22.6018 18.8832 22.7559C19.0372 22.9099 19.2461 22.9964 19.4639 22.9964C19.6092 22.9956 19.7516 22.9555 19.876 22.8803C20.0003 22.8051 20.102 22.6977 20.1702 22.5693V22.4872H20.2852L20.7944 21.3538H31.2742L31.7834 22.4872V22.5693C31.8516 22.6977 31.9533 22.8051 32.0777 22.8803C32.202 22.9555 32.3444 22.9956 32.4897 22.9964C32.7076 22.9964 32.9165 22.9099 33.0705 22.7559C33.2245 22.6018 33.311 22.3929 33.311 22.1751C33.3437 22.0457 33.3437 21.9103 33.311 21.7809L31.6684 18.4957C31.5934 18.3526 31.4777 18.2347 31.336 18.157C31.1943 18.0793 31.0328 18.0451 30.8718 18.0588Z" fill="#8E8E8E"/>
<path d="M0 11.6698C0 10.2014 1.20141 9 2.6698 9H12.0141C13.4825 9 14.6839 10.2014 14.6839 11.6698V22.349C14.6839 23.6839 13.349 23.6839 13.349 23.6839V25.0188C13.349 25.753 12.7483 26.3537 12.0141 26.3537C11.2799 26.3537 10.6792 25.753 10.6792 25.0188V23.6839H4.0047V25.0188C4.0047 25.753 3.40399 26.3537 2.6698 26.3537C1.9356 26.3537 1.3349 25.753 1.3349 25.0188V23.6839C0 23.6839 0 22.349 0 22.349V11.6698ZM2.00235 13.0047C1.62858 13.0047 1.3349 13.2984 1.3349 13.6721V17.6768C1.3349 18.0506 1.62858 18.3443 2.00235 18.3443H12.6815C13.0553 18.3443 13.349 18.0506 13.349 17.6768V13.6721C13.349 13.2984 13.0553 13.0047 12.6815 13.0047H2.00235ZM2.6698 19.6792C1.9356 19.6792 1.3349 20.2799 1.3349 21.0141C1.3349 21.7483 1.9356 22.349 2.6698 22.349C3.40399 22.349 4.0047 21.7483 4.0047 21.0141C4.0047 20.2799 3.40399 19.6792 2.6698 19.6792ZM12.0141 19.6792C11.2799 19.6792 10.6792 20.2799 10.6792 21.0141C10.6792 21.7483 11.2799 22.349 12.0141 22.349C12.7483 22.349 13.349 21.7483 13.349 21.0141C13.349 20.2799 12.7483 19.6792 12.0141 19.6792ZM2.6698 11.0023C2.6698 11.3761 2.96348 11.6698 3.33725 11.6698H11.3466C11.7204 11.6698 12.0141 11.3761 12.0141 11.0023C12.0141 10.6286 11.7204 10.3349 11.3466 10.3349H3.33725C2.96348 10.3349 2.6698 10.6286 2.6698 11.0023Z" fill="#8E8E8E"/>
</svg>
