<svg width="16" height="16" viewBox="0 0 16 16" fill="none" xmlns="http://www.w3.org/2000/svg">
<path d="M6.0403 8.70489C6.20026 8.54547 6.41491 8.45291 6.64064 8.44602C6.86637 8.43913 7.08626 8.51841 7.25566 8.66778C7.42505 8.81714 7.53124 9.02538 7.55265 9.2502C7.57407 9.47502 7.50911 9.69956 7.37096 9.87822L7.29719 9.96178L3.03674 14.2222H5.33541C5.56197 14.2225 5.77988 14.3092 5.94462 14.4648C6.10937 14.6203 6.20851 14.8328 6.22178 15.059C6.23506 15.2852 6.16148 15.5079 6.01606 15.6816C5.87065 15.8554 5.66438 15.967 5.43941 15.9938L5.33541 16H0.890964C0.673246 16 0.463109 15.92 0.300411 15.7754C0.137714 15.6307 0.0337705 15.4313 0.00829739 15.2151L0.0020752 15.1111V10.6667C0.00232649 10.4401 0.0890789 10.2222 0.244607 10.0575C0.400135 9.89271 0.6127 9.79357 0.838871 9.78029C1.06504 9.76701 1.28775 9.8406 1.46148 9.98601C1.63522 10.1314 1.74687 10.3377 1.77363 10.5627L1.77985 10.6667V12.9653L6.0403 8.70489ZM15.1132 0C15.3309 2.87205e-05 15.541 0.0799611 15.7037 0.224636C15.8664 0.369311 15.9704 0.568666 15.9959 0.784889L16.0021 0.888889V5.33333C16.0018 5.55989 15.9151 5.77781 15.7595 5.94255C15.604 6.10729 15.3914 6.20643 15.1653 6.21971C14.9391 6.23299 14.7164 6.1594 14.5427 6.01399C14.3689 5.86857 14.2573 5.66231 14.2305 5.43733L14.2243 5.33333V3.03467L9.96385 7.29511C9.80389 7.45453 9.58924 7.54709 9.36351 7.55398C9.13778 7.56087 8.91789 7.48159 8.74849 7.33222C8.5791 7.18286 8.47291 6.97462 8.4515 6.7498C8.43008 6.52498 8.49504 6.30044 8.63319 6.12178L8.70696 6.03822L12.9674 1.77778H10.6687C10.4422 1.77753 10.2243 1.69077 10.0595 1.53525C9.89478 1.37972 9.79564 1.16715 9.78237 0.940982C9.76909 0.714812 9.84267 0.492107 9.98809 0.318371C10.1335 0.144635 10.3398 0.032981 10.5647 0.00622219L10.6687 0H15.1132Z" fill="#A8A8A8"/>
</svg>
